<?xml version="1.0" encoding="UTF-8"?>
<!--
  ~ Copyright (c) 2017, Hugo Freire <hugo@antifragile.systems>.
  ~
  ~ This source code is licensed under the license found in the
  ~ LICENSE.md file in the root directory of this source tree.
  -->

<svg width="400px" height="400px" viewBox="0 0 400 400" version="1.1" xmlns="http://www.w3.org/2000/svg">
    <!-- Generator: Sketch 43.1 (39012) - http://www.bohemiancoding.com/sketch -->
    <title>cut</title>
    <desc>Created with Sketch.</desc>
    <defs>
        <linearGradient x1="49.9947977%" y1="0.0379710145%" x2="49.9947977%" y2="100.021256%" id="linearGradient-1">
            <stop stop-color="#EC4C71" offset="0%"></stop>
            <stop stop-color="#EEC402" offset="100%"></stop>
        </linearGradient>
        <linearGradient x1="49.6822628%" y1="-0.0403688525%" x2="49.6822628%" y2="99.9470287%" id="linearGradient-2">
            <stop stop-color="#EC4C71" offset="0%"></stop>
            <stop stop-color="#EEC402" offset="100%"></stop>
        </linearGradient>
        <linearGradient x1="49.9543353%" y1="0.0403864734%" x2="49.9543353%" y2="100.027053%" id="linearGradient-3">
            <stop stop-color="#EC4C71" offset="0%"></stop>
            <stop stop-color="#EEC402" offset="100%"></stop>
        </linearGradient>
        <linearGradient x1="50.0630058%" y1="0.164278403%" x2="50.0630058%" y2="100.050972%" id="linearGradient-4">
            <stop stop-color="#EC4C71" offset="0%"></stop>
            <stop stop-color="#EEC402" offset="100%"></stop>
        </linearGradient>
        <linearGradient x1="12.9956521%" y1="3.30604588%" x2="50%" y2="100%" id="linearGradient-5">
            <stop stop-color="#EC4B72" offset="0%"></stop>
            <stop stop-color="#EC4C71" offset="0%"></stop>
            <stop stop-color="#EC4B72" offset="0%"></stop>
            <stop stop-color="#EC4B72" offset="0%"></stop>
            <stop stop-color="#FEC809" offset="100%"></stop>
        </linearGradient>
        <linearGradient x1="19.537319%" y1="0%" x2="50%" y2="100%" id="linearGradient-6">
            <stop stop-color="#EC4C71" offset="0%"></stop>
            <stop stop-color="#FEC809" offset="100%"></stop>
        </linearGradient>
        <linearGradient x1="24.8250888%" y1="-3.73783001%" x2="84.0172745%" y2="96.6190656%" id="linearGradient-7">
            <stop stop-color="#EC4C71" offset="0%"></stop>
            <stop stop-color="#FEC809" offset="100%"></stop>
        </linearGradient>
    </defs>
    <g id="Square" stroke="none" stroke-width="1" fill="none" fill-rule="evenodd">
        <g id="Artboard">
            <g id="symbol" transform="translate(44.000000, 76.000000)">
                <g id="Shape">
                    <path d="M265.689985,46.597101 C264.259576,45.770275 263.1,46.4411418 263.1,48.1082288 L263.1,138.7 L280.4,148.6 L280.4,58.1050149 C280.4,56.445391 279.238035,54.428344 277.810015,53.602899 L265.689985,46.597101 Z"
                          fill="url(#linearGradient-1)" fill-rule="nonzero"></path>
                    <path d="M226.5,111.4 L242.4,120.6 L242.4,35.9900485 C242.4,34.3386903 241.244752,32.328344 239.806363,31.4920717 L227.793637,24.5079283 C226.361211,23.6751225 225.2,24.3524254 225.2,26.0012982 L225.2,109.1 C225.1,110 225.6,110.9 226.5,111.4 Z"
                          fill="url(#linearGradient-2)" fill-rule="nonzero"></path>
                    <path d="M32,148.6 L49.3,138.7 L49.3,48.1082288 C49.3,46.4468299 48.1380351,45.771656 46.7100152,46.597101 L34.5899848,53.602899 C33.1595757,54.429725 32,56.439709 32,58.1050149 L32,148.6 Z"
                          fill="url(#linearGradient-3)" fill-rule="nonzero"></path>
                    <path d="M70.1,119.7 C70.0447715,119.7 71.169165,119.023502 72.589997,118.201385 L85.9,110.5 C86.7,110 87.3,109.1 87.3,108.1 L87.3,25.0012982 C87.3,23.343727 86.1447517,22.671656 84.7063633,23.5079283 L72.6936367,30.4920717 C71.2612107,31.3248775 70.1,33.3424634 70.1,34.9934618 L70.1,119.7 L70.1,119.7 Z"
                          fill="url(#linearGradient-4)" fill-rule="nonzero"></path>
                    <path d="M108,98.7 L123.9,89.5 C124.7,89 125.3,88.1 125.3,87.1 L125.3,4.00129817 C125.3,2.34372696 124.144752,1.67165598 122.706363,2.50792832 L110.693637,9.49207168 C109.261211,10.3248775 108.1,12.3424634 108.1,13.9934618 L108.1,98.7 L108,98.7 Z"
                          fill="url(#linearGradient-4)" fill-rule="nonzero"></path>
                    <path d="M187.312618,89.4 L203.212618,98.6 L203.212618,13.9900485 C203.212618,12.3386903 202.05737,10.328344 200.618982,9.49207168 L188.606255,2.50792832 C187.173829,1.6751225 186.012618,2.3524254 186.012618,4.00129817 L186.012618,87.1 C185.912618,88 186.412618,88.9 187.312618,89.4 Z"
                          fill="url(#linearGradient-2)" fill-rule="nonzero"></path>
                    <path d="M72.7298253,30.4205971 C71.2941864,31.2459546 71.2886611,32.5943408 72.7229059,33.4354817 L222.507465,121.279557 C223.939283,122.119275 225.1,124.140111 225.1,125.799876 L225.1,206.220339 C225.1,207.877125 226.260141,209.89844 227.687305,210.732768 L253.803809,226.00063 C255.232737,226.83599 257.54421,226.817128 258.961332,225.961696 L270.988864,218.70139 C272.408356,217.844527 272.394477,216.485838 270.95607,215.66565 L245.003012,200.867065 C243.565408,200.047335 242.4,198.04018 242.4,196.377292 L242.4,115.80552 C242.4,114.145617 241.24033,112.121896 239.804376,111.282239 L89.8413513,23.5930786 C88.4078279,22.7548422 86.0827755,22.7439056 84.6462733,23.5697593 L72.7298253,30.4205971 Z"
                          fill="url(#linearGradient-5)" fill-rule="nonzero"></path>
                    <path d="M34.5899848,53.602899 C33.1595757,54.429725 33.1623965,55.7690321 34.5980766,56.595356 L60.5019234,71.504644 C61.9368015,72.3305063 61.9376035,73.6727697 60.5019234,74.5037099 L34.5980766,89.4962901 C33.1631985,90.3267661 32,92.3393649 32,93.9982048 L32,174.373866 C32,176.029728 30.8377641,178.034565 29.4022823,178.852815 L3.50201454,193.616423 C2.06733469,194.434216 2.04329162,195.801324 3.46144289,196.678063 L15.3051587,204.00016 C16.7174314,204.873264 19.018473,204.907046 20.4617296,204.065675 L46.7005751,188.769286 C48.1361978,187.932365 49.3,185.914823 49.3,184.256332 L49.3,103.897574 C49.3,102.24206 50.4586589,100.230968 51.8897227,99.404644 L77.7102773,84.495356 C79.1405417,83.6694937 81.4722314,83.6738915 82.9007094,84.4950938 L98.3992906,93.4049062 C99.8356227,94.2306237 99.8413411,95.5727697 98.4102773,96.4037099 L72.5897227,111.39629 C71.1594583,112.226766 70,114.239526 70,115.898566 L70,196.283905 C70,197.939967 68.8321343,199.946804 67.3839834,200.770576 L41.6196787,215.426446 C40.1748926,216.248303 40.1547093,217.605589 41.5693117,218.454854 L53.5754637,225.662821 C54.9924328,226.513508 57.3019731,226.525154 58.7357553,225.68779 L84.605358,210.5793 C86.0383392,209.742404 87.2,207.726276 87.2,206.069513 L87.2,125.794452 C87.2,124.140662 88.3623965,122.130968 89.7980766,121.304644 L115.701923,106.395356 C117.136801,105.569494 119.466568,105.573892 120.898567,106.401114 L136.301433,115.298886 C137.736582,116.127928 137.741341,117.47277 136.310277,118.30371 L110.489723,133.29629 C109.059458,134.126766 107.9,136.139627 107.9,137.798791 L107.9,218.190174 C107.9,219.84636 106.729748,221.848906 105.290147,222.660741 L78.946035,237.516993 C77.5046528,238.329833 77.5038903,239.66047 78.9315516,240.481703 L91.3301671,247.613756 C92.7635504,248.43828 95.0944543,248.429001 96.5248123,247.599741 L122.600725,232.482046 C124.036265,231.649781 125.2,229.637236 125.2,227.980259 L125.2,147.694839 C125.2,146.040835 126.358659,144.030968 127.789723,143.204644 L153.610277,128.295356 C155.040542,127.469494 157.358659,127.469032 158.789723,128.295356 L184.610277,143.204644 C186.040542,144.030506 187.2,146.042737 187.2,147.705754 L187.2,228.283797 C187.2,229.943829 188.363044,231.960857 189.805215,232.793275 L215.463144,247.602966 C216.901965,248.433449 219.236887,248.427113 220.654186,247.60286 L232.880238,240.492599 C234.308351,239.662057 234.294156,238.334113 232.846728,237.525544 L206.730909,222.936614 C205.284289,222.128497 204.117596,220.129351 204.125056,218.464724 L204.486517,137.808664 C204.493963,136.147025 203.339988,134.129555 201.903611,133.299381 L51.8963888,46.600619 C50.4624428,45.77185 48.1380351,45.771656 46.7100152,46.597101 L34.5899848,53.602899 Z"
                          fill="url(#linearGradient-6)" fill-rule="nonzero"></path>
                    <path d="M277.801923,56.595356 C279.236801,55.7694937 279.238035,54.428344 277.810015,53.602899 L265.689985,46.597101 C264.259576,45.770275 261.941341,45.7690321 260.510277,46.595356 L234.689723,61.504644 C233.259458,62.3305063 230.927769,62.3261085 229.499291,61.5049062 L214.000709,52.5950938 C212.564377,51.7693763 212.561988,50.4250118 213.997164,49.5913315 L239.891908,34.5493121 C241.326282,33.7160975 241.329844,32.3634557 239.897942,31.5269794 L228.019655,24.5880225 C226.588613,23.7520488 224.261325,23.7480863 222.833068,24.5725008 L196.795457,39.6018575 C195.362026,40.4292587 193.027769,40.4261085 191.599291,39.6049062 L176.100709,30.6950938 C174.664377,29.8693763 174.633875,28.4919434 176.043433,27.6117342 L200.340356,12.43934 C201.745055,11.562165 201.729549,10.1775779 200.296709,9.34151935 L188.678023,2.5620451 C187.249218,1.72834097 184.941356,1.75277446 183.525199,2.61544342 L158.865743,17.6370468 C157.448722,18.500242 155.141156,18.519178 153.709863,17.6782922 L127.885181,2.50626594 C126.454688,1.66584991 124.141365,1.65652155 122.70493,2.4931767 L110.708522,9.48051715 C109.278042,10.3137042 109.276788,11.6611568 110.711143,12.4932824 L260.507265,99.3958534 C261.939193,100.226571 263.1,102.241203 263.1,103.90232 L263.1,184.388305 C263.1,186.04644 264.266565,188.059945 265.707393,188.886625 L291.70413,203.802339 C293.144154,204.628558 295.467408,204.614615 296.887955,203.774338 L308.944564,196.642654 C310.367488,195.800971 310.354077,194.454332 308.912812,193.633829 L282.908185,178.82955 C281.467724,178.009505 280.3,176.004235 280.3,174.344 L280.3,93.9007269 C280.3,92.2434712 279.141341,90.2309679 277.710277,89.404644 L251.889723,74.495356 C250.459458,73.6694937 250.462396,72.3309679 251.898077,71.504644 L277.801923,56.595356 Z"
                          fill="url(#linearGradient-7)" fill-rule="nonzero"></path>
                </g>
            </g>
        </g>
    </g>
</svg>
